<?xml version="1.0" encoding="utf-8"?>
<!-- Generator: Adobe Illustrator 16.0.4, SVG Export Plug-In . SVG Version: 6.00 Build 0)  -->
<!DOCTYPE svg PUBLIC "-//W3C//DTD SVG 1.1//EN" "http://www.w3.org/Graphics/SVG/1.1/DTD/svg11.dtd">
<svg version="1.1" id="Layer_1" xmlns="http://www.w3.org/2000/svg" xmlns:xlink="http://www.w3.org/1999/xlink" x="0px" y="0px"
	 width="64px" height="40.625px" viewBox="0 0 64 40.625" enable-background="new 0 0 64 40.625" xml:space="preserve">
<path id="_x32_08x128_Solid" fill="#474541" d="M59.385,40.005H4.615C2.07,40.005,0,37.935,0,35.39V5.235
	C0,2.69,2.07,0.62,4.615,0.62h54.77C61.93,0.62,64,2.69,64,5.235V35.39C64,37.935,61.93,40.005,59.385,40.005z M15.385,30.774v-12
	l6.154,7.693l6.154-7.693v12h6.153V9.851h-6.153l-6.154,7.692l-6.154-7.692H9.231v20.923H15.385z M56.615,20.312h-6.153V9.851
	h-6.154v10.461h-6.153l9.23,10.77L56.615,20.312z"/>
</svg>
